<svg width="23" height="31" viewBox="0 0 23 31" fill="none" xmlns="http://www.w3.org/2000/svg">
<g filter="url(#filter0_di_5_236)">
<path d="M9.30957 19.5254C9.30957 18.8516 9.32422 18.2803 9.35352 17.8115C9.39258 17.3428 9.47559 16.918 9.60254 16.5371C9.72949 16.166 9.91992 15.8242 10.1738 15.5117C10.4277 15.1895 10.7842 14.8477 11.2432 14.4863C11.5752 14.1836 11.9072 13.8662 12.2393 13.5342C12.5713 13.1924 12.874 12.8408 13.1475 12.4795C13.4111 12.1279 13.626 11.7666 13.792 11.3955C13.958 11.0244 14.041 10.6533 14.041 10.2822C14.041 9.83301 13.9775 9.44727 13.8506 9.125C13.7236 8.79297 13.543 8.51953 13.3086 8.30469C13.0645 8.10938 12.7666 7.96289 12.415 7.86523C12.0732 7.76758 11.6777 7.71875 11.2285 7.71875C10.877 7.71875 10.5352 7.76758 10.2031 7.86523C9.87109 7.95312 9.57812 8.09961 9.32422 8.30469C9.06055 8.50977 8.8457 8.77344 8.67969 9.0957C8.52344 9.41797 8.44043 9.80371 8.43066 10.2529H4.34375C4.35352 9.25684 4.53906 8.39258 4.90039 7.66016C5.26172 6.91797 5.75 6.30273 6.36523 5.81445C6.98047 5.32617 7.70312 4.96484 8.5332 4.73047C9.36328 4.48633 10.2617 4.36426 11.2285 4.36426C12.3125 4.36426 13.2842 4.48633 14.1436 4.73047C15.0029 4.97461 15.7305 5.33594 16.3262 5.81445C16.9121 6.30273 17.3613 6.90332 17.6738 7.61621C17.9863 8.3291 18.1426 9.1543 18.1426 10.0918C18.1426 10.7852 18.0254 11.4199 17.791 11.9961C17.5566 12.5625 17.2539 13.0898 16.8828 13.5781C16.5117 14.0762 16.0869 14.5498 15.6084 14.999C15.1396 15.4385 14.666 15.8682 14.1875 16.2881C13.8945 16.5811 13.665 16.8398 13.499 17.0645C13.333 17.2891 13.2158 17.5186 13.1475 17.7529C13.0693 17.9873 13.0205 18.2461 13.001 18.5293C12.9814 18.8027 12.9717 19.1348 12.9717 19.5254H9.30957ZM8.70898 23.9639C8.70898 23.3193 8.91895 22.7822 9.33887 22.3525C9.75879 21.9131 10.3398 21.6934 11.082 21.6934C11.8047 21.6934 12.3809 21.9131 12.8105 22.3525C13.25 22.7822 13.4697 23.3193 13.4697 23.9639C13.4697 24.5889 13.25 25.1162 12.8105 25.5459C12.3809 25.9658 11.8047 26.1758 11.082 26.1758C10.3398 26.1758 9.75879 25.9658 9.33887 25.5459C8.91895 25.1162 8.70898 24.5889 8.70898 23.9639Z" fill="white"/>
</g>
<defs>
<filter id="filter0_di_5_236" x="0.34375" y="0.364258" width="21.7988" height="29.8115" filterUnits="userSpaceOnUse" color-interpolation-filters="sRGB">
<feFlood flood-opacity="0" result="BackgroundImageFix"/>
<feColorMatrix in="SourceAlpha" type="matrix" values="0 0 0 0 0 0 0 0 0 0 0 0 0 0 0 0 0 0 127 0" result="hardAlpha"/>
<feOffset/>
<feGaussianBlur stdDeviation="2"/>
<feComposite in2="hardAlpha" operator="out"/>
<feColorMatrix type="matrix" values="0 0 0 0 0.535937 0 0 0 0 0.6125 0 0 0 0 0.589531 0 0 0 1 0"/>
<feBlend mode="normal" in2="BackgroundImageFix" result="effect1_dropShadow_5_236"/>
<feBlend mode="normal" in="SourceGraphic" in2="effect1_dropShadow_5_236" result="shape"/>
<feColorMatrix in="SourceAlpha" type="matrix" values="0 0 0 0 0 0 0 0 0 0 0 0 0 0 0 0 0 0 127 0" result="hardAlpha"/>
<feOffset/>
<feGaussianBlur stdDeviation="12.5"/>
<feComposite in2="hardAlpha" operator="arithmetic" k2="-1" k3="1"/>
<feColorMatrix type="matrix" values="0 0 0 0 0.0980392 0 0 0 0 0.0627451 0 0 0 0 0.0862745 0 0 0 1 0"/>
<feBlend mode="normal" in2="shape" result="effect2_innerShadow_5_236"/>
</filter>
</defs>
</svg>
